<svg xmlns="http://www.w3.org/2000/svg" width="261.72930908203125" height="311.3688049316406" viewBox="-133.98118591308594 -190.15040588378906 261.72930908203125 311.3688049316406"><title>Neo4j Graph Visualization</title><desc>Created using Neo4j (http://www.neo4j.com/)</desc><g class="layer relationships"><g class="relationship" transform="translate(-101.48684219199615 -161.15041105422705) rotate(444.96128122432754)"><path class="b-outline" fill="#A5ABB6" stroke="none" d="M 21.40063509461097,12.933012701892217 L 21.90063509461097,12.06698729810778 A 101.58397449856957 101.58397449856957 0 0 0 40.25262332005159,20.357685353222834 L 39.933281620891144,21.305324988937457 A 102.58397449856957 102.58397449856957 0 0 1 21.40063509461097,12.933012701892217 Z M 101.00578733748473,22.69205855591356 L 100.72978745415028,21.730900887058255 A 101.58397449856957 101.58397449856957 0 0 0 119.43917059313641,14.281731226859781 L 118.05864137639765,11.618248716736876 L 125.88405131954633,11.50441013948979 L 121.27987621545478,17.83304124035699 L 119.89934699871601,15.169558730234085 A 102.58397449856957 102.58397449856957 0 0 1 101.00578733748473,22.69205855591356"/><text text-anchor="middle" pointer-events="none" font-size="8px" fill="#000000" x="70.375265407898" y="29.150353297290096" font-family="Helvetica Neue, Helvetica, Arial, sans-serif">PublicTransport</text></g><g class="relationship" transform="translate(-88.48115844221691 -13.642915434346525) rotate(405.8073413686095)"><path class="b-outline" fill="#A5ABB6" stroke="none" d="M 25 0.5 L 60.6544380544089 0.5 L 60.6544380544089 -0.5 L 25 -0.5 Z M 79.9903755544089 0.5 L 115.6448136088178 0.5 L 115.6448136088178 3.5 L 122.6448136088178 0 L 115.6448136088178 -3.5 L 115.6448136088178 -0.5 L 79.9903755544089 -0.5 Z"/><text text-anchor="middle" pointer-events="none" font-size="8px" fill="#000000" x="70.3224068044089" y="3" font-family="Helvetica Neue, Helvetica, Arial, sans-serif">trek</text></g><g class="relationship" transform="translate(14.438089945568109 92.21840562710616) rotate(305.70851653164704)"><path class="b-outline" fill="#A5ABB6" stroke="none" d="M 25 0.5 L 59.057082129907954 0.5 L 59.057082129907954 -0.5 L 25 -0.5 Z M 78.39301962990795 0.5 L 112.45010175981591 0.5 L 112.45010175981591 3.5 L 119.45010175981591 0 L 112.45010175981591 -3.5 L 112.45010175981591 -0.5 L 78.39301962990795 -0.5 Z"/><text text-anchor="middle" pointer-events="none" font-size="8px" fill="#000000" x="68.72505087990795" y="3" font-family="Helvetica Neue, Helvetica, Arial, sans-serif">trek</text></g><g class="relationship" transform="translate(-101.48684219199615 -161.15041105422705) rotate(444.96128122432754)"><path class="b-outline" fill="#A5ABB6" stroke="none" d="M 25 0.5 L 60.871900701951944 0.5 L 60.871900701951944 -0.5 L 25 -0.5 Z M 80.20783820195194 0.5 L 116.07973890390389 0.5 L 116.07973890390389 3.5 L 123.07973890390389 0 L 116.07973890390389 -3.5 L 116.07973890390389 -0.5 L 80.20783820195194 -0.5 Z"/><text text-anchor="middle" pointer-events="none" font-size="8px" fill="#000000" x="70.53986945195194" y="3" font-family="Helvetica Neue, Helvetica, Arial, sans-serif">trek</text></g><g class="relationship" transform="translate(-101.48684219199615 -161.15041105422705) rotate(444.96128122432754)"><path class="b-outline" fill="#F79767" stroke="none" d="M 21.40063509461097,-12.933012701892217 L 21.90063509461097,-12.06698729810778 A 101.58397449856957 101.58397449856957 0 0 1 59.472071904758145,-24.812697279908775 L 59.34192784902105,-25.804192375588173 A 102.58397449856957 102.58397449856957 0 0 0 21.40063509461097,-12.933012701892217 Z M 81.4129437319718,-26.305344542558032 L 81.32793706859478,-25.30896415978171 A 101.58397449856957 101.58397449856957 0 0 1 119.43917059313641,-14.281731226859781 L 118.05864137639765,-11.618248716736876 L 125.88405131954633,-11.50441013948979 L 121.27987621545478,-17.83304124035699 L 119.89934699871601,-15.169558730234085 A 102.58397449856957 102.58397449856957 0 0 0 81.4129437319718,-26.305344542558032"/><text text-anchor="middle" pointer-events="none" font-size="8px" fill="#000000" x="70.375265407898" y="-23.150353297290096" font-family="Helvetica Neue, Helvetica, Arial, sans-serif">road</text></g></g><g class="layer nodes"><g class="node" aria-label="graph-node1" transform="translate(-101.48684219199615,-161.15041105422705)"><circle class="b-outline" cx="0" cy="0" r="25" fill="#57C7E3" stroke="#23b3d7" stroke-width="2px"/><text class="caption" text-anchor="middle" pointer-events="none" x="0" y="5" font-size="10px" fill="#2A2C34" font-family="Helvetica Neue, Helvetica, Arial, sans-serif"> Darjeeling</text></g><g class="node" aria-label="graph-node3" transform="translate(98.74811285049807,-25.07461179589032)"><circle class="b-outline" cx="0" cy="0" r="25" fill="#8DCC93" stroke="#5db665" stroke-width="2px"/><text class="caption" text-anchor="middle" pointer-events="none" x="0" y="5" font-size="10px" fill="#2A2C34" font-family="Helvetica Neue, Helvetica, Arial, sans-serif"> Sandakp…</text></g><g class="node" aria-label="graph-node0" transform="translate(-88.48115844221691,-13.642915434346525)"><circle class="b-outline" cx="0" cy="0" r="25" fill="#57C7E3" stroke="#23b3d7" stroke-width="2px"/><text class="caption" text-anchor="middle" pointer-events="none" x="0" y="5" font-size="10px" fill="#2A2C34" font-family="Helvetica Neue, Helvetica, Arial, sans-serif"> Rimbik</text></g><g class="node" aria-label="graph-node2" transform="translate(14.438089945568109,92.21840562710616)"><circle class="b-outline" cx="0" cy="0" r="25" fill="#F16667" stroke="#eb2728" stroke-width="2px"/><text class="caption" text-anchor="middle" pointer-events="none" x="0" y="5" font-size="10px" fill="#FFFFFF" font-family="Helvetica Neue, Helvetica, Arial, sans-serif"> BhikeBh…</text></g></g></svg>