<svg xmlns="http://www.w3.org/2000/svg" width="544.484375" height="221.72886657714844" viewBox="-321.4419860839844 -127.65855407714844 544.484375 221.72886657714844"><title>Neo4j Graph Visualization</title><desc>Created using Neo4j (http://www.neo4j.com/)</desc><g class="layer relationships"><g class="relationship" transform="translate(72.93137032609816 -98.65855153744155) rotate(390.9097140099573)"><path class="b-outline" fill="#A5ABB6" stroke="none" d="M 25 0.5 L 49.856685758968396 0.5 L 49.856685758968396 -0.5 L 25 -0.5 Z M 84.3019982589684 0.5 L 109.15868401793679 0.5 L 109.15868401793679 3.5 L 116.15868401793679 0 L 109.15868401793679 -3.5 L 109.15868401793679 -0.5 L 84.3019982589684 -0.5 Z"/><text text-anchor="middle" pointer-events="none" font-size="8px" fill="#000000" x="67.0793420089684" y="3" font-family="Helvetica Neue, Helvetica, Arial, sans-serif">ORIGIN</text></g><g class="relationship" transform="translate(72.93137032609816 -98.65855153744155) rotate(522.6785394612355)"><path class="b-outline" fill="#A5ABB6" stroke="none" d="M 25 0.5 L 37.82299545567329 0.5 L 37.82299545567329 -0.5 L 25 -0.5 Z M 97.0104954556733 0.5 L 109.83349091134659 0.5 L 109.83349091134659 3.5 L 116.83349091134659 0 L 109.83349091134659 -3.5 L 109.83349091134659 -0.5 L 97.0104954556733 -0.5 Z"/><text text-anchor="middle" pointer-events="none" font-size="8px" fill="#000000" x="67.4167454556733" y="3" transform="rotate(180 67.4167454556733 0)" font-family="Helvetica Neue, Helvetica, Arial, sans-serif">DESTINATION</text></g><g class="relationship" transform="translate(-142.28520495817926 65.07031074361258) rotate(303.3014699848156)"><path class="b-outline" fill="#A5ABB6" stroke="none" d="M 25 0.5 L 51.96303703897895 0.5 L 51.96303703897895 -0.5 L 25 -0.5 Z M 86.40834953897895 0.5 L 113.3713865779579 0.5 L 113.3713865779579 3.5 L 120.3713865779579 0 L 113.3713865779579 -3.5 L 113.3713865779579 -0.5 L 86.40834953897895 -0.5 Z"/><text text-anchor="middle" pointer-events="none" font-size="8px" fill="#000000" x="69.18569328897895" y="3" font-family="Helvetica Neue, Helvetica, Arial, sans-serif">ORIGIN</text></g><g class="relationship" transform="translate(-142.28520495817926 65.07031074361258) rotate(187.07707508760944)"><path class="b-outline" fill="#A5ABB6" stroke="none" d="M 25 0.5 L 42.56102923003661 0.5 L 42.56102923003661 -0.5 L 25 -0.5 Z M 101.74852923003661 0.5 L 119.30955846007322 0.5 L 119.30955846007322 3.5 L 126.30955846007322 0 L 119.30955846007322 -3.5 L 119.30955846007322 -0.5 L 101.74852923003661 -0.5 Z"/><text text-anchor="middle" pointer-events="none" font-size="8px" fill="#000000" x="72.15477923003661" y="3" transform="rotate(180 72.15477923003661 0)" font-family="Helvetica Neue, Helvetica, Arial, sans-serif">DESTINATION</text></g></g><g class="layer nodes"><g class="node" aria-label="graph-node21" transform="translate(194.0423912821615,-26.147209826949748)"><circle class="b-outline" cx="0" cy="0" r="25" fill="#ECB5C9" stroke="#da7298" stroke-width="2px"/><text class="caption" text-anchor="middle" pointer-events="none" x="0" y="5" font-size="10px" fill="#2A2C34" font-family="Helvetica Neue, Helvetica, Arial, sans-serif"> MSN</text></g><g class="node" aria-label="graph-node68" transform="translate(-292.4419832948621,46.42830438886068)"><circle class="b-outline" cx="0" cy="0" r="25" fill="#ECB5C9" stroke="#da7298" stroke-width="2px"/><text class="caption" text-anchor="middle" pointer-events="none" x="0" y="5" font-size="10px" fill="#2A2C34" font-family="Helvetica Neue, Helvetica, Arial, sans-serif"> GRR</text></g><g class="node" aria-label="graph-node271" transform="translate(72.93137032609816,-98.65855153744155)"><circle class="b-outline" cx="0" cy="0" r="25" fill="#4C8EDA" stroke="#2870c2" stroke-width="2px"/><text class="caption" text-anchor="middle" pointer-events="none" x="0" y="5" font-size="10px" fill="#FFFFFF" font-family="Helvetica Neue, Helvetica, Arial, sans-serif"> 11/30/20…</text></g><g class="node" aria-label="graph-node7" transform="translate(-62.46987939251045,-56.430116582567535)"><circle class="b-outline" cx="0" cy="0" r="25" fill="#ECB5C9" stroke="#da7298" stroke-width="2px"/><text class="caption" text-anchor="middle" pointer-events="none" x="0" y="5" font-size="10px" fill="#2A2C34" font-family="Helvetica Neue, Helvetica, Arial, sans-serif"> ORD</text></g><g class="node" aria-label="graph-node851" transform="translate(-142.28520495817926,65.07031074361258)"><circle class="b-outline" cx="0" cy="0" r="25" fill="#4C8EDA" stroke="#2870c2" stroke-width="2px"/><text class="caption" text-anchor="middle" pointer-events="none" x="0" y="5" font-size="10px" fill="#FFFFFF" font-family="Helvetica Neue, Helvetica, Arial, sans-serif"> 11/17/20…</text></g></g></svg>