<svg xmlns="http://www.w3.org/2000/svg" width="657.8711547851562" height="400.2271728515625" viewBox="-434.39825439453125 -184.11691284179688 657.8711547851562 400.2271728515625"><title>Neo4j Graph Visualization</title><desc>Created using Neo4j (http://www.neo4j.com/)</desc><g class="layer relationships"><g class="relationship" transform="translate(194.4728823314183 -155.1169054295302) rotate(464.40111684307635)"><path class="b-outline" fill="#F79767" stroke="none" d="M 24.018736134675446,-6.953439040707552 L 24.277555179777966,-5.987513214418485 A 283.1251458480167 283.1251458480167 0 0 1 84.05874311908671,-15.312874905670583 L 84.01107164888522,-16.311737974829157 A 284.1251458480167 284.1251458480167 0 0 0 24.018736134675446,-6.953439040707552 Z M 106.05519102143633,-16.50761176036781 L 106.02527654159191,-15.508059298565229 A 283.1251458480167 283.1251458480167 0 0 1 165.96273401562237,-7.246461774089929 L 165.23789201610953,-4.335344449806657 L 172.8761481055355,-6.040349995940469 L 166.92919001497285,-11.127951539800959 L 166.20434801546,-8.216834215517686 A 284.1251458480167 284.1251458480167 0 0 0 106.05519102143633,-16.50761176036781"/><text text-anchor="middle" pointer-events="none" font-size="8px" fill="#000000" x="95.03567350507363" y="-13.123572789823754" transform="rotate(180 95.03567350507363 -16.123572789823754)" font-family="Helvetica Neue, Helvetica, Arial, sans-serif">road</text></g><g class="relationship" transform="translate(145.44356529511657 35.8242250839794) rotate(494.13538321388296)"><path class="b-outline" fill="#A5ABB6" stroke="none" d="M 21.40063509461097,-12.933012701892217 L 21.90063509461097,-12.06698729810778 A 157.0326757757202 157.0326757757202 0 0 1 74.74286362026385,-30.992361869468695 L 74.57936828889169,-31.978905977260908 A 158.0326757757202 158.0326757757202 0 0 0 21.40063509461097,-12.933012701892217 Z M 121.01638787553587,-32.75706739482111 L 120.88603878923489,-31.76559923310309 A 157.0326757757202 157.0326757757202 0 0 1 174.3326987332641,-14.621344829632013 L 172.92059022682122,-11.974469395080606 L 180.74409283162453,-11.767570887023895 L 176.21551007518792,-18.150512075700554 L 174.80340156874504,-15.503636641149148 A 158.0326757757202 158.0326757757202 0 0 0 121.01638787553587,-32.75706739482111"/><text text-anchor="middle" pointer-events="none" font-size="8px" fill="#000000" x="97.77751327088608" y="-30.583263004247712" transform="rotate(180 97.77751327088608 -33.58326300424771)" font-family="Helvetica Neue, Helvetica, Arial, sans-serif">twowheeler</text></g><g class="relationship" transform="translate(4.221572396448021 181.37405072779785) rotate(206.4586276043591)"><path class="b-outline" fill="#A5ABB6" stroke="none" d="M 21.40063509461097,12.933012701892217 L 21.90063509461097,12.06698729810778 A 113.41067152487942 113.41067152487942 0 0 0 53.29634849427785,24.400921193779823 L 53.07318058580444,25.375701212362273 A 114.41067152487942 114.41067152487942 0 0 1 21.40063509461097,12.933012701892217 Z M 99.40877760171296,26.35399793212902 L 99.2269518465854,25.370667166428944 A 113.41067152487942 113.41067152487942 0 0 0 131.1152748193194,14.37286724083321 L 129.72627050633244,11.713794654666447 L 137.55127823920637,11.575035941558072 L 132.96728056996872,17.918297355722228 L 131.57827625698175,15.259224769555464 A 114.41067152487942 114.41067152487942 0 0 1 99.40877760171296,26.35399793212902"/><text text-anchor="middle" pointer-events="none" font-size="8px" fill="#000000" x="76.20147811773143" y="30.73575567869827" transform="rotate(180 76.20147811773143 27.73575567869827)" font-family="Helvetica Neue, Helvetica, Arial, sans-serif">twowheeler</text></g><g class="relationship" transform="translate(-138.7600083827968 110.21492763951082) rotate(523.9130592304048)"><path class="b-outline" fill="#A5ABB6" stroke="none" d="M 25 0.5 L 125.58437570746489 0.5 L 125.58437570746489 -0.5 L 25 -0.5 Z M 144.9203132074649 0.5 L 245.50468891492977 0.5 L 245.50468891492977 3.5 L 252.50468891492977 0 L 245.50468891492977 -3.5 L 245.50468891492977 -0.5 L 144.9203132074649 -0.5 Z"/><text text-anchor="middle" pointer-events="none" font-size="8px" fill="#000000" x="135.2523444574649" y="3" transform="rotate(180 135.2523444574649 0)" font-family="Helvetica Neue, Helvetica, Arial, sans-serif">trek</text></g><g class="relationship" transform="translate(4.221572396448021 181.37405072779785) rotate(206.4586276043591)"><path class="b-outline" fill="#F79767" stroke="none" d="M 25 0.5 L 65.34924885363134 0.5 L 65.34924885363134 -0.5 L 25 -0.5 Z M 87.36096760363134 0.5 L 127.71021645726267 0.5 L 127.71021645726267 3.5 L 134.71021645726267 0 L 127.71021645726267 -3.5 L 127.71021645726267 -0.5 L 87.36096760363134 -0.5 Z"/><text text-anchor="middle" pointer-events="none" font-size="8px" fill="#000000" x="76.35510822863134" y="3" transform="rotate(180 76.35510822863134 0)" font-family="Helvetica Neue, Helvetica, Arial, sans-serif">road</text></g><g class="relationship" transform="translate(4.221572396448021 181.37405072779785) rotate(206.4586276043591)"><path class="b-outline" fill="#A5ABB6" stroke="none" d="M 21.40063509461097,-12.933012701892217 L 21.90063509461097,-12.06698729810778 A 113.41067152487942 113.41067152487942 0 0 1 66.60881157931968,-26.624790609677078 L 66.50302647888405,-27.61917962436189 A 114.41067152487942 114.41067152487942 0 0 0 21.40063509461097,-12.933012701892217 Z M 85.89620744894754,-28.028633403976343 L 85.83248754856821,-27.03066558170167 A 113.41067152487942 113.41067152487942 0 0 1 131.1152748193194,-14.37286724083321 L 129.72627050633244,-11.713794654666447 L 137.55127823920637,-11.575035941558072 L 132.96728056996872,-17.918297355722228 L 131.57827625698175,-15.259224769555464 A 114.41067152487942 114.41067152487942 0 0 0 85.89620744894754,-28.028633403976343"/><text text-anchor="middle" pointer-events="none" font-size="8px" fill="#000000" x="76.20147811773143" y="-24.73575567869827" transform="rotate(180 76.20147811773143 -27.73575567869827)" font-family="Helvetica Neue, Helvetica, Arial, sans-serif">trek</text></g><g class="relationship" transform="translate(145.44356529511657 35.8242250839794) rotate(494.13538321388296)"><path class="b-outline" fill="#F79767" stroke="none" d="M 25 0.5 L 86.89483468477647 0.5 L 86.89483468477647 -0.5 L 25 -0.5 Z M 108.90655343477647 0.5 L 170.80138811955294 0.5 L 170.80138811955294 3.5 L 177.80138811955294 0 L 170.80138811955294 -3.5 L 170.80138811955294 -0.5 L 108.90655343477647 -0.5 Z"/><text text-anchor="middle" pointer-events="none" font-size="8px" fill="#000000" x="97.90069405977647" y="3" transform="rotate(180 97.90069405977647 0)" font-family="Helvetica Neue, Helvetica, Arial, sans-serif">road</text></g><g class="relationship" transform="translate(145.44356529511657 35.8242250839794) rotate(494.13538321388296)"><path class="b-outline" fill="#A5ABB6" stroke="none" d="M 21.40063509461097,12.933012701892217 L 21.90063509461097,12.06698729810778 A 157.0326757757202 157.0326757757202 0 0 0 88.16096147413424,32.62637038171046 L 88.08291395028104,33.623320021371555 A 158.0326757757202 158.0326757757202 0 0 1 21.40063509461097,12.933012701892217 Z M 107.46532734031041,33.948117917825286 L 107.42072672639787,32.94911302032047 A 157.0326757757202 157.0326757757202 0 0 0 174.3326987332641,14.621344829632013 L 172.92059022682122,11.974469395080606 L 180.74409283162453,11.767570887023895 L 176.21551007518792,18.150512075700554 L 174.80340156874504,15.503636641149148 A 158.0326757757202 158.0326757757202 0 0 1 107.46532734031041,33.948117917825286"/><text text-anchor="middle" pointer-events="none" font-size="8px" fill="#000000" x="97.7775132708861" y="36.58326300424771" transform="rotate(180 97.7775132708861 33.58326300424771)" font-family="Helvetica Neue, Helvetica, Arial, sans-serif">trek</text></g><g class="relationship" transform="translate(194.4728823314183 -155.1169054295302) rotate(464.40111684307635)"><path class="b-outline" fill="#A5ABB6" stroke="none" d="M 24.018736134675446,6.953439040707552 L 24.277555179777966,5.987513214418485 A 283.1251458480167 283.1251458480167 0 0 0 85.39290199623223,15.373395109020521 L 85.34994278453802,16.372471935961585 A 284.1251458480167 284.1251458480167 0 0 1 24.018736134675446,6.953439040707552 Z M 104.71545206192376,16.544544838804256 L 104.6902528949585,15.544862388230968 A 283.1251458480167 283.1251458480167 0 0 0 165.96273401562237,7.246461774089929 L 165.23789201610953,4.335344449806657 L 172.8761481055355,6.040349995940469 L 166.92919001497285,11.127951539800959 L 166.20434801546,8.216834215517686 A 284.1251458480167 284.1251458480167 0 0 1 104.71545206192376,16.544544838804256"/><text text-anchor="middle" pointer-events="none" font-size="8px" fill="#000000" x="95.0356735050737" y="19.123572789823754" transform="rotate(180 95.0356735050737 16.123572789823754)" font-family="Helvetica Neue, Helvetica, Arial, sans-serif">trek</text></g><g class="relationship" transform="translate(194.4728823314183 -155.1169054295302) rotate(504.3990157916202)"><path class="b-outline" fill="#A5ABB6" stroke="none" d="M 21.40063509461097,12.933012701892217 L 21.90063509461097,12.06698729810778 A 150.8787202521557 150.8787202521557 0 0 0 85.11333880331576,31.784685300976932 L 85.03230248224318,32.78139645004019 A 151.8787202521557 151.8787202521557 0 0 1 21.40063509461097,12.933012701892217 Z M 104.4160331688707,33.11597687528145 L 104.36944311375018,32.11706278149565 A 150.8787202521557 150.8787202521557 0 0 0 168.2249783245103,14.592675555568842 L 166.81553536955903,11.944379772100117 L 174.63924231176253,11.745357957927329 L 170.10423559777865,18.12373660019381 L 168.6947926428274,15.475440816725083 A 151.8787202521557 151.8787202521557 0 0 1 104.4160331688707,33.11597687528145"/><text text-anchor="middle" pointer-events="none" font-size="8px" fill="#000000" x="94.72745308129" y="35.758357200558365" transform="rotate(180 94.72745308129 32.758357200558365)" font-family="Helvetica Neue, Helvetica, Arial, sans-serif">trek</text></g><g class="relationship" transform="translate(34.53112087020494 -40.60569514981743) rotate(186.6142481874257)"><path class="b-outline" fill="#A5ABB6" stroke="none" d="M 24.018736134675446,-6.953439040707552 L 24.277555179777966,-5.987513214418485 A 180.42305499231648 180.42305499231648 0 0 1 45.73138075551877,-10.360663901045314 L 45.591470159099,-11.350828041483396 A 181.42305499231648 181.42305499231648 0 0 0 24.018736134675446,-6.953439040707552 Z M 92.05345837110642,-11.906568348502418 L 91.93727148193388,-10.91334097937468 A 180.42305499231648 180.42305499231648 0 0 1 113.48956028247592,-7.054594263109878 L 112.78263706309716,-4.139073801527905 L 120.41026189606366,-5.891026828156413 L 114.43212457498095,-10.941954878552508 L 113.72520135560218,-8.026434416970535 A 181.42305499231648 181.42305499231648 0 0 0 92.05345837110642,-11.906568348502418"/><text text-anchor="middle" pointer-events="none" font-size="8px" fill="#000000" x="68.81057914876664" y="-9.622338800381101" transform="rotate(180 68.81057914876664 -12.622338800381101)" font-family="Helvetica Neue, Helvetica, Arial, sans-serif">twowheeler</text></g><g class="relationship" transform="translate(-109.21200204535755 -57.273567228871556) rotate(498.12082655438616)"><path class="b-outline" fill="#A5ABB6" stroke="none" d="M 24.018736134675446,-6.953439040707552 L 24.277555179777966,-5.987513214418485 A 249.19965998129447 249.19965998129447 0 0 1 63.2139689144479,-13.16437210911991 L 63.11139572352348,-14.159097568984862 A 250.19965998129447 250.19965998129447 0 0 0 24.018736134675446,-6.953439040707552 Z M 109.59994419885864,-14.610629498126059 L 109.5167115878135,-13.614099351839144 A 249.19965998129447 249.19965998129447 0 0 1 148.58518068563674,-7.194882852586483 L 147.86515553623505,-4.282570406397188 L 155.5005805849787,-6.000209578347421 L 149.54521421817233,-11.07796611417221 L 148.82518906877064,-8.165653667982914 A 250.19965998129447 250.19965998129447 0 0 0 109.59994419885864,-14.610629498126059"/><text text-anchor="middle" pointer-events="none" font-size="8px" fill="#000000" x="86.3500157290308" y="-11.967008513585483" transform="rotate(180 86.3500157290308 -14.967008513585483)" font-family="Helvetica Neue, Helvetica, Arial, sans-serif">twowheeler</text></g><g class="relationship" transform="translate(-243.06040839280735 62.73394685247357) rotate(502.54220710595587)"><path class="b-outline" fill="#A5ABB6" stroke="none" d="M 24.018736134675446,6.953439040707552 L 24.277555179777966,5.987513214418485 A 297.50650345538907 297.50650345538907 0 0 0 75.56537356359989,15.011593104714962 L 75.47894677812242,16.00785130957553 A 298.50650345538907 298.50650345538907 0 0 1 24.018736134675446,6.953439040707552 Z M 121.97290942211667,16.406560682376437 L 121.90358093222895,15.40896679682487 A 297.50650345538907 297.50650345538907 0 0 0 173.33861729243023,7.265787622625916 L 172.6119705253217,4.35512026343649 L 180.2512822583903,6.0553897259042895 L 174.3074796485749,11.146677434878484 L 173.5808328814664,8.236010075689057 A 298.50650345538907 298.50650345538907 0 0 1 121.97290942211667,16.406560682376437"/><text text-anchor="middle" pointer-events="none" font-size="8px" fill="#000000" x="98.72244096819897" y="19.6138444958724" transform="rotate(180 98.72244096819897 16.6138444958724)" font-family="Helvetica Neue, Helvetica, Arial, sans-serif">twowheeler</text></g><g class="relationship" transform="translate(-243.06040839280735 62.73394685247357) rotate(502.54220710595587)"><path class="b-outline" fill="#A5ABB6" stroke="none" d="M 24.018736134675446,-6.953439040707552 L 24.277555179777966,-5.987513214418485 A 297.50650345538907 297.50650345538907 0 0 1 89.07837109971845,-15.874569607667013 L 89.0373651617827,-16.87372851047178 A 298.50650345538907 298.50650345538907 0 0 0 24.018736134675446,-6.953439040707552 Z M 108.4016354636708,-17.039786975436982 L 108.37777088763873,-16.040071774986984 A 297.50650345538907 297.50650345538907 0 0 1 173.33861729243023,-7.265787622625916 L 172.6119705253217,-4.35512026343649 L 180.2512822583903,-6.0553897259042895 L 174.3074796485749,-11.146677434878484 L 173.5808328814664,-8.236010075689057 A 298.50650345538907 298.50650345538907 0 0 0 108.4016354636708,-17.039786975436982"/><text text-anchor="middle" pointer-events="none" font-size="8px" fill="#000000" x="98.72244096819887" y="-13.6138444958724" transform="rotate(180 98.72244096819887 -16.6138444958724)" font-family="Helvetica Neue, Helvetica, Arial, sans-serif">trek</text></g><g class="relationship" transform="translate(-109.21200204535755 -57.273567228871556) rotate(498.12082655438616)"><path class="b-outline" fill="#A5ABB6" stroke="none" d="M 24.018736134675446,6.953439040707552 L 24.277555179777966,5.987513214418485 A 249.19965998129447 249.19965998129447 0 0 0 76.71094176370511,14.186588167872088 L 76.66252985394082,15.185415623938923 A 250.19965998129447 250.19965998129447 0 0 1 24.018736134675446,6.953439040707552 Z M 96.03143171787991,15.373541042150492 L 96.00242984592528,14.37396168490909 A 249.19965998129447 249.19965998129447 0 0 0 148.58518068563674,7.194882852586483 L 147.86515553623505,4.282570406397188 L 155.5005805849787,6.000209578347421 L 149.54521421817233,11.07796611417221 L 148.82518906877064,8.165653667982914 A 250.19965998129447 250.19965998129447 0 0 1 96.03143171787991,15.373541042150492"/><text text-anchor="middle" pointer-events="none" font-size="8px" fill="#000000" x="86.3500157290309" y="17.967008513585483" transform="rotate(180 86.3500157290309 14.967008513585483)" font-family="Helvetica Neue, Helvetica, Arial, sans-serif">trek</text></g><g class="relationship" transform="translate(34.53112087020494 -40.60569514981743) rotate(186.6142481874257)"><path class="b-outline" fill="#A5ABB6" stroke="none" d="M 24.018736134675446,6.953439040707552 L 24.277555179777966,5.987513214418485 A 180.42305499231648 180.42305499231648 0 0 0 59.18366632104184,11.749597340195976 L 59.118315406399425,12.747459684387508 A 181.42305499231648 181.42305499231648 0 0 1 24.018736134675446,6.953439040707552 Z M 78.49707718662768,12.97925258511853 L 78.45561278068668,11.980112603414284 A 180.42305499231648 180.42305499231648 0 0 0 113.48956028247592,7.054594263109878 L 112.78263706309716,4.139073801527905 L 120.41026189606366,5.891026828156413 L 114.43212457498095,10.941954878552508 L 113.72520135560218,8.026434416970535 A 181.42305499231648 181.42305499231648 0 0 1 78.49707718662768,12.97925258511853"/><text text-anchor="middle" pointer-events="none" font-size="8px" fill="#000000" x="68.81057914876666" y="15.622338800381101" transform="rotate(180 68.81057914876666 12.622338800381101)" font-family="Helvetica Neue, Helvetica, Arial, sans-serif">trek</text></g><g class="relationship" transform="translate(34.53112087020494 -40.60569514981743) rotate(498.9659417971421)"><path class="b-outline" fill="#A5ABB6" stroke="none" d="M 25 0.5 L 101.69790492049165 0.5 L 101.69790492049165 -0.5 L 25 -0.5 Z M 121.03384242049165 0.5 L 197.7317473409833 0.5 L 197.7317473409833 3.5 L 204.7317473409833 0 L 197.7317473409833 -3.5 L 197.7317473409833 -0.5 L 121.03384242049165 -0.5 Z"/><text text-anchor="middle" pointer-events="none" font-size="8px" fill="#000000" x="111.36587367049165" y="3" transform="rotate(180 111.36587367049165 0)" font-family="Helvetica Neue, Helvetica, Arial, sans-serif">trek</text></g><g class="relationship" transform="translate(194.4728823314183 -155.1169054295302) rotate(504.3990157916202)"><path class="b-outline" fill="#F79767" stroke="none" d="M 25 0.5 L 83.84832754533434 0.5 L 83.84832754533434 -0.5 L 25 -0.5 Z M 105.86004629533434 0.5 L 164.70837384066868 0.5 L 164.70837384066868 3.5 L 171.70837384066868 0 L 164.70837384066868 -3.5 L 164.70837384066868 -0.5 L 105.86004629533434 -0.5 Z"/><text text-anchor="middle" pointer-events="none" font-size="8px" fill="#000000" x="94.85418692033434" y="3" transform="rotate(180 94.85418692033434 0)" font-family="Helvetica Neue, Helvetica, Arial, sans-serif">road</text></g><g class="relationship" transform="translate(194.4728823314183 -155.1169054295302) rotate(504.3990157916202)"><path class="b-outline" fill="#A5ABB6" stroke="none" d="M 21.40063509461097,-12.933012701892217 L 21.90063509461097,-12.06698729810778 A 150.8787202521557 150.8787202521557 0 0 1 64.24589317402618,-28.60669562539171 L 64.02655076449784,-29.582343567726596 A 151.8787202521557 151.8787202521557 0 0 0 21.40063509461097,-12.933012701892217 Z M 125.51967587947058,-30.643769579210257 L 125.33413520193527,-29.661132994821244 A 150.8787202521557 150.8787202521557 0 0 1 168.2249783245103,-14.592675555568842 L 166.81553536955903,-11.944379772100117 L 174.63924231176253,-11.745357957927329 L 170.10423559777865,-18.12373660019381 L 168.6947926428274,-15.475440816725083 A 151.8787202521557 151.8787202521557 0 0 0 125.51967587947058,-30.643769579210257"/><text text-anchor="middle" pointer-events="none" font-size="8px" fill="#000000" x="94.72745308129002" y="-29.758357200558365" transform="rotate(180 94.72745308129002 -32.758357200558365)" font-family="Helvetica Neue, Helvetica, Arial, sans-serif">PublicTransport</text></g><g class="relationship" transform="translate(34.53112087020494 -40.60569514981743) rotate(394.57078098237605)"><path class="b-outline" fill="#A5ABB6" stroke="none" d="M 25 0.5 L 54.180199441966536 0.5 L 54.180199441966536 -0.5 L 25 -0.5 Z M 73.51613694196654 0.5 L 102.69633638393307 0.5 L 102.69633638393307 3.5 L 109.69633638393307 0 L 102.69633638393307 -3.5 L 102.69633638393307 -0.5 L 73.51613694196654 -0.5 Z"/><text text-anchor="middle" pointer-events="none" font-size="8px" fill="#000000" x="63.848168191966536" y="3" font-family="Helvetica Neue, Helvetica, Arial, sans-serif">trek</text></g><g class="relationship" transform="translate(-109.21200204535755 -57.273567228871556) rotate(195.1396245220614)"><path class="b-outline" fill="#A5ABB6" stroke="none" d="M 24.018736134675446,-6.953439040707552 L 24.277555179777966,-5.987513214418485 A 175.6326468650941 175.6326468650941 0 0 1 44.52062335781359,-10.152753436417726 L 44.37706231593177,-11.142394900410522 A 176.6326468650941 176.6326468650941 0 0 0 24.018736134675446,-6.953439040707552 Z M 90.8353757841268,-11.707161335102938 L 90.71591459148547,-10.714322464262011 A 175.6326468650941 175.6326468650941 0 0 1 111.0542544739099,-7.042406589062282 L 110.34846954016545,-4.126610363792182 L 117.97540982183087,-5.881541114536951 L 111.9953010522358,-10.930134889422416 L 111.28951611849136,-8.014338664152316 A 176.6326468650941 176.6326468650941 0 0 0 90.8353757841268,-11.707161335102938"/><text text-anchor="middle" pointer-events="none" font-size="8px" fill="#000000" x="67.59364616392014" y="-9.459037677421094" transform="rotate(180 67.59364616392014 -12.459037677421094)" font-family="Helvetica Neue, Helvetica, Arial, sans-serif">twowheeler</text></g><g class="relationship" transform="translate(-246.54771200770077 -94.43149787325147) rotate(448.7288872696847)"><path class="b-outline" fill="#A5ABB6" stroke="none" d="M 21.40063509461097,12.933012701892217 L 21.90063509461097,12.06698729810778 A 110.86475795005047 110.86475795005047 0 0 0 52.05298162012582,23.99932470720023 L 51.82495575404401,24.972979781853283 A 111.86475795005047 111.86475795005047 0 0 1 21.40063509461097,12.933012701892217 Z M 98.1499659355286,25.966066098212437 L 97.9638755863662,24.98353346163053 A 110.86475795005047 110.86475795005047 0 0 0 128.5998819989873,14.354338378041529 L 127.21260071472791,11.69436645368902 L 135.0376967031864,11.56067736882835 L 130.44959037799984,17.90096761051154 L 129.06230909374045,15.240995686159032 A 111.86475795005047 111.86475795005047 0 0 1 98.1499659355286,25.966066098212437"/><text text-anchor="middle" pointer-events="none" font-size="8px" fill="#000000" x="74.94619509112842" y="30.394467858573947" font-family="Helvetica Neue, Helvetica, Arial, sans-serif">twowheeler</text></g><g class="relationship" transform="translate(-246.54771200770077 -94.43149787325147) rotate(448.7288872696847)"><path class="b-outline" fill="#F79767" stroke="none" d="M 25 0.5 L 64.09620532806201 0.5 L 64.09620532806201 -0.5 L 25 -0.5 Z M 86.10792407806201 0.5 L 125.20412940612403 0.5 L 125.20412940612403 3.5 L 132.20412940612403 0 L 125.20412940612403 -3.5 L 125.20412940612403 -0.5 L 86.10792407806201 -0.5 Z"/><text text-anchor="middle" pointer-events="none" font-size="8px" fill="#000000" x="75.10206470306201" y="3" font-family="Helvetica Neue, Helvetica, Arial, sans-serif">road</text></g><g class="relationship" transform="translate(-246.54771200770077 -94.43149787325147) rotate(448.7288872696847)"><path class="b-outline" fill="#A5ABB6" stroke="none" d="M 21.40063509461097,-12.933012701892217 L 21.90063509461097,-12.06698729810778 A 110.86475795005047 110.86475795005047 0 0 1 65.35559040750934,-26.271150901863123 L 65.24755405868582,-27.265297846400443 A 111.86475795005047 111.86475795005047 0 0 0 21.40063509461097,-12.933012701892217 Z M 84.64146157480579,-27.68105218945489 L 84.57612868856799,-26.683188664730267 A 110.86475795005047 110.86475795005047 0 0 1 128.5998819989873,-14.354338378041529 L 127.21260071472791,-11.69436645368902 L 135.0376967031864,-11.56067736882835 L 130.44959037799984,-17.90096761051154 L 129.06230909374045,-15.240995686159032 A 111.86475795005047 111.86475795005047 0 0 0 84.64146157480579,-27.68105218945489"/><text text-anchor="middle" pointer-events="none" font-size="8px" fill="#000000" x="74.94619509112843" y="-24.394467858573947" font-family="Helvetica Neue, Helvetica, Arial, sans-serif">trek</text></g><g class="relationship" transform="translate(-109.21200204535755 -57.273567228871556) rotate(195.1396245220614)"><path class="b-outline" fill="#A5ABB6" stroke="none" d="M 24.018736134675446,6.953439040707552 L 24.277555179777966,5.987513214418485 A 175.6326468650941 175.6326468650941 0 0 0 57.967967892901505,11.577448418948649 L 57.90097202711371,12.575201671996382 A 176.6326468650941 176.6326468650941 0 0 1 24.018736134675446,6.953439040707552 Z M 77.28063213118983,12.810788819386545 L 77.2379106800035,11.811701797346643 A 175.6326468650941 175.6326468650941 0 0 0 111.0542544739099,7.042406589062282 L 110.34846954016545,4.126610363792182 L 117.97540982183087,5.881541114536951 L 111.9953010522358,10.930134889422416 L 111.28951611849136,8.014338664152316 A 176.6326468650941 176.6326468650941 0 0 1 77.28063213118983,12.810788819386545"/><text text-anchor="middle" pointer-events="none" font-size="8px" fill="#000000" x="67.5936461639202" y="15.459037677421094" transform="rotate(180 67.5936461639202 12.459037677421094)" font-family="Helvetica Neue, Helvetica, Arial, sans-serif">trek</text></g><g class="relationship" transform="translate(-246.54771200770077 -94.43149787325147) rotate(486.3722251689113)"><path class="b-outline" fill="#A5ABB6" stroke="none" d="M 25 0.5 L 66.391469666384 0.5 L 66.391469666384 -0.5 L 25 -0.5 Z M 85.727407166384 0.5 L 127.118876832768 0.5 L 127.118876832768 3.5 L 134.118876832768 0 L 127.118876832768 -3.5 L 127.118876832768 -0.5 L 85.727407166384 -0.5 Z"/><text text-anchor="middle" pointer-events="none" font-size="8px" fill="#000000" x="76.059438416384" y="3" transform="rotate(180 76.059438416384 0)" font-family="Helvetica Neue, Helvetica, Arial, sans-serif">trek</text></g><g class="relationship" transform="translate(-340.9097623010728 33.68805734355653) rotate(472.79864770859535)"><path class="b-outline" fill="#A5ABB6" stroke="none" d="M 25 0.5 L 70.04432397874888 0.5 L 70.04432397874888 -0.5 L 25 -0.5 Z M 89.38026147874888 0.5 L 134.42458545749776 0.5 L 134.42458545749776 3.5 L 141.42458545749776 0 L 134.42458545749776 -3.5 L 134.42458545749776 -0.5 L 89.38026147874888 -0.5 Z"/><text text-anchor="middle" pointer-events="none" font-size="8px" fill="#000000" x="79.71229272874888" y="3" transform="rotate(180 79.71229272874888 0)" font-family="Helvetica Neue, Helvetica, Arial, sans-serif">trek</text></g></g><g class="layer nodes"><g class="node" aria-label="graph-node1" transform="translate(194.4728823314183,-155.1169054295302)"><circle class="b-outline" cx="0" cy="0" r="25" fill="#57C7E3" stroke="#23b3d7" stroke-width="2px"/><text class="caption" text-anchor="middle" pointer-events="none" x="0" y="5" font-size="10px" fill="#2A2C34" font-family="Helvetica Neue, Helvetica, Arial, sans-serif"> Darjeeling</text></g><g class="node" aria-label="graph-node3" transform="translate(-405.39826209112334,187.11027229148584)"><circle class="b-outline" cx="0" cy="0" r="25" fill="#8DCC93" stroke="#5db665" stroke-width="2px"/><text class="caption" text-anchor="middle" pointer-events="none" x="0" y="5" font-size="10px" fill="#2A2C34" font-family="Helvetica Neue, Helvetica, Arial, sans-serif"> Sandakp…</text></g><g class="node" aria-label="graph-node6" transform="translate(145.44356529511657,35.8242250839794)"><circle class="b-outline" cx="0" cy="0" r="25" fill="#F16667" stroke="#eb2728" stroke-width="2px"/><text class="caption" text-anchor="middle" pointer-events="none" x="0" y="5" font-size="10px" fill="#FFFFFF" font-family="Helvetica Neue, Helvetica, Arial, sans-serif"> Tumbling</text></g><g class="node" aria-label="graph-node7" transform="translate(4.221572396448021,181.37405072779785)"><circle class="b-outline" cx="0" cy="0" r="25" fill="#F16667" stroke="#eb2728" stroke-width="2px"/><text class="caption" text-anchor="middle" pointer-events="none" x="0" y="5" font-size="10px" fill="#FFFFFF" font-family="Helvetica Neue, Helvetica, Arial, sans-serif"> Gairibus</text></g><g class="node" aria-label="graph-node2" transform="translate(-138.7600083827968,110.21492763951082)"><circle class="b-outline" cx="0" cy="0" r="25" fill="#F16667" stroke="#eb2728" stroke-width="2px"/><text class="caption" text-anchor="middle" pointer-events="none" x="0" y="5" font-size="10px" fill="#FFFFFF" font-family="Helvetica Neue, Helvetica, Arial, sans-serif"> BhikeBh…</text></g><g class="node" aria-label="graph-node0" transform="translate(34.53112087020494,-40.60569514981743)"><circle class="b-outline" cx="0" cy="0" r="25" fill="#57C7E3" stroke="#23b3d7" stroke-width="2px"/><text class="caption" text-anchor="middle" pointer-events="none" x="0" y="5" font-size="10px" fill="#2A2C34" font-family="Helvetica Neue, Helvetica, Arial, sans-serif"> Rimbik</text></g><g class="node" aria-label="graph-node4" transform="translate(-109.21200204535755,-57.273567228871556)"><circle class="b-outline" cx="0" cy="0" r="25" fill="#F16667" stroke="#eb2728" stroke-width="2px"/><text class="caption" text-anchor="middle" pointer-events="none" x="0" y="5" font-size="10px" fill="#FFFFFF" font-family="Helvetica Neue, Helvetica, Arial, sans-serif"> Sirikhola</text></g><g class="node" aria-label="graph-node5" transform="translate(-243.06040839280735,62.73394685247357)"><circle class="b-outline" cx="0" cy="0" r="25" fill="#F16667" stroke="#eb2728" stroke-width="2px"/><text class="caption" text-anchor="middle" pointer-events="none" x="0" y="5" font-size="10px" fill="#FFFFFF" font-family="Helvetica Neue, Helvetica, Arial, sans-serif"> Gurdum</text></g><g class="node" aria-label="graph-node8" transform="translate(-246.54771200770077,-94.43149787325147)"><circle class="b-outline" cx="0" cy="0" r="25" fill="#F16667" stroke="#eb2728" stroke-width="2px"/><text class="caption" text-anchor="middle" pointer-events="none" x="0" y="5" font-size="10px" fill="#FFFFFF" font-family="Helvetica Neue, Helvetica, Arial, sans-serif"> Rammam</text></g><g class="node" aria-label="graph-node9" transform="translate(-340.9097623010728,33.68805734355653)"><circle class="b-outline" cx="0" cy="0" r="25" fill="#8DCC93" stroke="#5db665" stroke-width="2px"/><text class="caption" text-anchor="middle" pointer-events="none" x="0" y="5" font-size="10px" fill="#2A2C34" font-family="Helvetica Neue, Helvetica, Arial, sans-serif"> Sabargr…</text></g></g></svg>