<svg xmlns="http://www.w3.org/2000/svg" width="293.8824157714844" height="276.73614501953125" viewBox="-145.33706665039062 -141.318359375 293.8824157714844 276.73614501953125"><title>Neo4j Graph Visualization</title><desc>Created using Neo4j (http://www.neo4j.com/)</desc><g class="layer relationships"><g class="relationship" transform="translate(119.54535072513798 -24.92260880263561) rotate(216.83911779217487)"><path class="b-outline" fill="#A5ABB6" stroke="none" d="M 25 0.5 L 59.71403236444887 0.5 L 59.71403236444887 -0.5 L 25 -0.5 Z M 79.04996986444887 0.5 L 113.76400222889774 0.5 L 113.76400222889774 3.5 L 120.76400222889774 0 L 113.76400222889774 -3.5 L 113.76400222889774 -0.5 L 79.04996986444887 -0.5 Z"/><text text-anchor="middle" pointer-events="none" font-size="8px" fill="#000000" x="69.38200111444887" y="3" transform="rotate(180 69.38200111444887 0)" font-family="Helvetica Neue, Helvetica, Arial, sans-serif">trek</text></g><g class="relationship" transform="translate(60.51644216338861 106.41777680319063) rotate(294.20079802828667)"><path class="b-outline" fill="#A5ABB6" stroke="none" d="M 21.40063509461097,12.933012701892217 L 21.90063509461097,12.06698729810778 A 97.42332728758545 97.42332728758545 0 0 0 58.75126866123578,24.394518305486272 L 58.629521330207396,25.387079430751342 A 98.42332728758545 98.42332728758545 0 0 1 21.40063509461097,12.933012701892217 Z M 78.0273548632946,25.83952152251709 L 77.952016462031,24.842363498282694 A 97.42332728758545 97.42332728758545 0 0 0 115.33732734695982,14.246338534327847 L 113.96008957894975,11.58115258765046 L 121.7856341838754,11.476981400083922 L 117.17364437097325,17.799919796564367 L 115.79640660296317,15.134733849886977 A 98.42332728758545 98.42332728758545 0 0 1 78.0273548632946,25.83952152251709"/><text text-anchor="middle" pointer-events="none" font-size="8px" fill="#000000" x="68.32892062628474" y="28.59261268533288" font-family="Helvetica Neue, Helvetica, Arial, sans-serif">trek</text></g><g class="relationship" transform="translate(60.51644216338861 106.41777680319063) rotate(294.20079802828667)"><path class="b-outline" fill="#F79767" stroke="none" d="M 25 0.5 L 57.49189916142684 0.5 L 57.49189916142684 -0.5 L 25 -0.5 Z M 79.50361791142684 0.5 L 111.99551707285369 0.5 L 111.99551707285369 3.5 L 118.99551707285369 0 L 111.99551707285369 -3.5 L 111.99551707285369 -0.5 L 79.50361791142684 -0.5 Z"/><text text-anchor="middle" pointer-events="none" font-size="8px" fill="#000000" x="68.49775853642684" y="3" font-family="Helvetica Neue, Helvetica, Arial, sans-serif">road</text></g><g class="relationship" transform="translate(60.51644216338861 106.41777680319063) rotate(294.20079802828667)"><path class="b-outline" fill="#A5ABB6" stroke="none" d="M 21.40063509461097,-12.933012701892217 L 21.90063509461097,-12.06698729810778 A 97.42332728758545 97.42332728758545 0 0 1 38.26085143039911,-19.59089751672859 L 37.9287805782868,-20.534151962346215 A 98.42332728758545 98.42332728758545 0 0 0 21.40063509461097,-12.933012701892217 Z M 98.93184416827586,-21.95700950196246 L 98.64411212130771,-20.99929854914447 A 97.42332728758545 97.42332728758545 0 0 1 115.33732734695982,-14.246338534327847 L 113.96008957894975,-11.58115258765046 L 121.7856341838754,-11.476981400083922 L 117.17364437097325,-17.799919796564367 L 115.79640660296317,-15.134733849886977 A 98.42332728758545 98.42332728758545 0 0 0 98.93184416827586,-21.95700950196246"/><text text-anchor="middle" pointer-events="none" font-size="8px" fill="#000000" x="68.32892062628474" y="-22.59261268533288" font-family="Helvetica Neue, Helvetica, Arial, sans-serif">PublicTransport</text></g><g class="relationship" transform="translate(2.8871822615473373 -112.3183528437879) rotate(506.3865220330001)"><path class="b-outline" fill="#A5ABB6" stroke="none" d="M 25 0.5 L 58.41316562082757 0.5 L 58.41316562082757 -0.5 L 25 -0.5 Z M 77.74910312082757 0.5 L 111.16226874165514 0.5 L 111.16226874165514 3.5 L 118.16226874165514 0 L 111.16226874165514 -3.5 L 111.16226874165514 -0.5 L 77.74910312082757 -0.5 Z"/><text text-anchor="middle" pointer-events="none" font-size="8px" fill="#000000" x="68.08113437082757" y="3" transform="rotate(180 68.08113437082757 0)" font-family="Helvetica Neue, Helvetica, Arial, sans-serif">trek</text></g></g><g class="layer nodes"><g class="node" aria-label="graph-node1" transform="translate(60.51644216338861,106.41777680319063)"><circle class="b-outline" cx="0" cy="0" r="25" fill="#57C7E3" stroke="#23b3d7" stroke-width="2px"/><text class="caption" text-anchor="middle" pointer-events="none" x="0" y="5" font-size="10px" fill="#2A2C34" font-family="Helvetica Neue, Helvetica, Arial, sans-serif"> Darjeeling</text></g><g class="node" aria-label="graph-node0" transform="translate(119.54535072513798,-24.92260880263561)"><circle class="b-outline" cx="0" cy="0" r="25" fill="#57C7E3" stroke="#23b3d7" stroke-width="2px"/><text class="caption" text-anchor="middle" pointer-events="none" x="0" y="5" font-size="10px" fill="#2A2C34" font-family="Helvetica Neue, Helvetica, Arial, sans-serif"> Rimbik</text></g><g class="node" aria-label="graph-node2" transform="translate(2.8871822615473373,-112.3183528437879)"><circle class="b-outline" cx="0" cy="0" r="25" fill="#F16667" stroke="#eb2728" stroke-width="2px"/><text class="caption" text-anchor="middle" pointer-events="none" x="0" y="5" font-size="10px" fill="#FFFFFF" font-family="Helvetica Neue, Helvetica, Arial, sans-serif"> BhikeBh…</text></g><g class="node" aria-label="graph-node3" transform="translate(-116.33707250708643,-33.065515253441696)"><circle class="b-outline" cx="0" cy="0" r="25" fill="#8DCC93" stroke="#5db665" stroke-width="2px"/><text class="caption" text-anchor="middle" pointer-events="none" x="0" y="5" font-size="10px" fill="#2A2C34" font-family="Helvetica Neue, Helvetica, Arial, sans-serif"> Sandakp…</text></g></g></svg>